/* XPM */
static char *ba08f1fde2d540eec9df61be936b9bb1TrqXXfINWBgvH2CG[] = {
/* columns rows colors chars-per-pixel */
"59 64 145 2 ",
"   c None",
".  c #E22C09",
"X  c #E93E07",
"o  c #E53309",
"O  c #E73908",
"+  c #E83C08",
"@  c #E73510",
"#  c #E83711",
"$  c #E93913",
"%  c #EC4407",
"&  c #EE4A07",
"*  c #EA4308",
"=  c #EE4B08",
"-  c #EF5209",
";  c #F45D07",
":  c #F15408",
">  c #F35B08",
",  c #E94510",
"<  c #E94915",
"1  c #ED421A",
"2  c #EF4A1C",
"3  c #F0481E",
"4  c #F5561B",
"5  c #F66307",
"6  c #FA6C07",
"7  c #F76408",
"8  c #F8670A",
"9  c #F66909",
"0  c #F96D08",
"q  c #FD7407",
"w  c #FF7A07",
"e  c #FC7408",
"r  c #FE7C09",
"t  c #F86710",
"y  c #FA6519",
"u  c #FE6E1E",
"i  c #FE7611",
"p  c #FD7C12",
"a  c #FF7219",
"s  c #FF781B",
"d  c #F34D23",
"f  c #F55225",
"g  c #F95B2E",
"h  c #FC5F31",
"j  c #FB6620",
"k  c #FF692D",
"l  c #FF7121",
"z  c #F27229",
"x  c #FE6435",
"c  c #FE6B34",
"v  c #FF7935",
"b  c #FF8207",
"n  c #FF8309",
"m  c #FE8C0A",
"M  c #FF950B",
"N  c #FF9C0B",
"B  c #FE8B13",
"V  c #FE9114",
"C  c #FF9D10",
"Z  c #FF9C1D",
"A  c #FFA20B",
"S  c #FFAB0D",
"D  c #FFB30D",
"F  c #FFBA0E",
"G  c #FFB51B",
"H  c #FFBE1F",
"J  c #F58922",
"K  c #FC8822",
"L  c #FF9124",
"P  c #FB9820",
"I  c #FD962D",
"U  c #FF9A30",
"Y  c #FFA622",
"T  c #FFAC27",
"R  c #FCA32C",
"E  c #FFAF2A",
"W  c #FFB023",
"Q  c #FFB129",
"!  c #FFA534",
"~  c #FDA33A",
"^  c #FFAC3A",
"/  c #FFB332",
"(  c #FEB03C",
")  c #FFC30E",
"_  c #FFCC10",
"`  c #FFC619",
"'  c #FFCA1F",
"]  c #FFD511",
"[  c #FFDC12",
"{  c #FFD31C",
"}  c #FFDA1D",
"|  c #FFE412",
" . c #FFEF15",
".. c #FFEE14",
"X. c #FFE11C",
"o. c #FFE51C",
"O. c #FFE81D",
"+. c #FFEB18",
"@. c #FFF013",
"#. c #FFF113",
"$. c #FFF014",
"%. c #FFF114",
"&. c #FFF015",
"*. c #FFF214",
"=. c #FFF014",
"-. c #FFF11A",
";. c #FFD526",
":. c #FFD72F",
">. c #FFC930",
",. c #FFCA37",
"<. c #FFC03F",
"1. c #FFCF38",
"2. c #FFD236",
"3. c #FFDF34",
"4. c #FFD43A",
"5. c #FFE421",
"6. c #FFE621",
"7. c #FFE722",
"8. c #FFE226",
"9. c #FFE225",
"0. c #FFEE2B",
"q. c #FFF222",
"w. c #FFF226",
"e. c #FFF42C",
"r. c #FFE038",
"t. c #FFED3A",
"y. c #FFF33F",
"u. c #FFB747",
"i. c #FFB047",
"p. c #FFBA4B",
"a. c #FFB754",
"s. c #FFBA54",
"d. c #F8C442",
"f. c #FFC942",
"g. c #FFC549",
"h. c #FFC248",
"j. c #FFD047",
"k. c #FFE44B",
"l. c #FFE94F",
"z. c #FFF146",
"x. c #FFF846",
"c. c #FFED50",
"v. c #FFEE51",
"b. c #FFF957",
"n. c #FFFC52",
/* pixels */
"                                                                                                                      ",
"                                                                                                                      ",
"                                                                                                                      ",
"                                                                                                                      ",
"                                                                                                                      ",
"                                                                                                                      ",
"                                                                                                                      ",
"                                                                                                                      ",
"                                                                                                                      ",
"                                          .                                                                           ",
"                                          . .                                                                         ",
"                                          . .                                                                         ",
"                                            . #                                                                       ",
"                                            o g 1 . .                                                                 ",
"                                            o g c 2 o o .                                                             ",
"                                            o t <.R 6 > .                                                             ",
"                                            . * d.c.Q 5 . . .                                                         ",
"                                            . . J 3.8.N - . . .                                                       ",
"                                            . . 5 A } ;.e = o . .                                                     ",
"                                              . : q W r.M w & o . .                                                   ",
"                                              . . : S $.[ B w * .                                                     ",
"                                            . . . : S @.o.( p *               . . .                                   ",
"                                          . . . . z >.@.[ B % o               . . .                                   ",
"                                        . . . > 5 p G $.[ r O .               . . .                                   ",
"                                        . o : e S F _ $.[ r O .               . . .                                   ",
"                                        . o e r _ $.$.$.[ r O .             . $ # . .                                 ",
"                                          o e r _ $.| _ F 9 o .             . 4 f @ .                                 ",
"                                      . . o 8 w _ | D r e o . .         . . o 5 l d .                                 ",
"                                      . . o X 0 _ D r w 0 o .       . o o o 7 w u d .                                 ",
"                        .             . + 0 0 w _ D w w 0 o . . . . * 0 0 e w r > o .     . .                         ",
"                            .         . X r ! ` | D w w 0 o . . . . % m _ 4.V w : .   . . . .                         ",
"                          . . .       . X p u.6.@.] A w e > o . . . % V y.b.Z ; X . . . . . .                         ",
"                          o 1 o     . . , I p.6...$.] N r e O . . . * V t.,.B % . . . . . .                           ",
"                          # g o   . . . < ~ ^ X.@. .$._ r q & * o o > A ) n 0 * . . . . .                             ",
"                          # g $ @ o . . X 0 b _ [ | $.] M V m r & = A ] b 0 X . o o . .                               ",
"                          # g g h 1 . . . + 0 w b F | ..O.z.6.C = : A ] w + . . 3 d . .                               ",
"                          . @ # g 1 . . . . O + 7 n D .. .q.x.g.K q A ] w O . . d f . .                               ",
"                              f x y 5 7 > . . > e w n D .. .w.f.i.L A ] r 8 7 5 j f . .                               ",
"                              x d 8 r w q > ; e w w w N | .. .f.s.U N ] b r r a k d . .                               ",
"                              d o ; r V Y r w w w w w N .... .f.s./ ) ] s a w a l 4 . .                               ",
"                          .   . . = 6 T l.Y N N n w w N .... .f.a.2.@.{ c x i 6 5 = . .                               ",
"                          . .   . . & P c.n.w. .S b w N .... .1.h.:...H c k i & . . .     .                           ",
"                            . . . o o - Z c.n.w...D r M | .. . .+. .' v k i e % . . . . . .                           ",
"                              . . : 0 q r Z c.n.w.| D b N |  .......0.j.p e & o . . . .                               ",
"                                . O ; r w r Z 8.-.@.| _ ] .. . ...e.n.k.n q X . .                                     ",
"                                  . + & & : q N S _ $.$.$. . . .@.{ E Y r w X .                                       ",
"                                    . . . o : q w F $. . . . . .$.F q w w > o .                                       ",
"                                        . . o 0 r A [ $. . . . .$.F w e ; o . .                                       ",
"                                          . o ; 0 e A [  . . . .$.F q ; o .                                           ",
"                                            . o o > r N | .. . .| D 5 o . .                                           ",
"                                              . . : w r N | ....D b ; .                                               ",
"                                                . o > w r N [ D n ; O .                                               ",
"                                                                                                                      ",
"                                                                                                                      ",
"                                                                                                                      ",
"                                                                                                                      ",
"                                                                                                                      ",
"                                                                                                                      ",
"                                                                                                                      ",
"                                                                                                                      ",
"                                                                                                                      ",
"                                                                                                                      ",
"                                                                                                                      ",
"                                                                                                                      "
};
