/* XPM */
static char *_933ffbb2aa94bfcf351008346f44b94kkJHCwdmBhuWUZF1[] = {
/* columns rows colors chars-per-pixel */
"57 64 163 2 ",
"   c None",
".  c #010101",
"X  c #0A0605",
"o  c #070807",
"O  c #080807",
"+  c #0C0C0A",
"@  c #110906",
"#  c #140E0B",
"$  c #1B0E09",
"%  c #15120E",
"&  c #1C110C",
"*  c #141513",
"=  c #1A1510",
"-  c #171812",
";  c #1C1A14",
":  c #1C1D1A",
">  c #24130C",
",  c #2B160E",
"<  c #2D180E",
"1  c #30170F",
"2  c #321A0F",
"3  c #3B1E0F",
"4  c #221B15",
"5  c #2C1911",
"6  c #251F1A",
"7  c #341B11",
"8  c #3B1E11",
"9  c #1F211E",
"0  c #242317",
"q  c #24231B",
"w  c #28261B",
"e  c #2C2A1D",
"r  c #352015",
"t  c #3E2012",
"y  c #33221A",
"u  c #322E1E",
"i  c #33301F",
"p  c #242422",
"a  c #262925",
"s  c #2C2C24",
"d  c #2C2E2A",
"f  c #302E24",
"g  c #2F342E",
"h  c #353324",
"j  c #393626",
"k  c #3C3927",
"l  c #34352C",
"z  c #3B3728",
"x  c #37382C",
"c  c #3B3A2B",
"v  c #333432",
"b  c #363932",
"n  c #3B3D33",
"m  c gray24",
"M  c #442313",
"N  c #4A2514",
"B  c #4F2916",
"V  c #512716",
"C  c #542A15",
"Z  c #5C2D16",
"A  c #5C2E18",
"S  c #5F3016",
"D  c #612F16",
"F  c #622F18",
"G  c #623017",
"H  c #623018",
"J  c #403D2C",
"K  c #413F30",
"L  c #3E4133",
"P  c #3E4239",
"I  c #40402F",
"U  c #434334",
"Y  c #43463A",
"T  c #464A3C",
"R  c #494C3D",
"E  c #454440",
"W  c #464C41",
"Q  c #494E42",
"!  c #4C4D4C",
"~  c #504F47",
"^  c #4C5244",
"/  c #4E5449",
"(  c #515445",
")  c #515649",
"_  c #545A4C",
"`  c #595E4F",
"'  c #565D51",
"]  c #595E52",
"[  c #5A604F",
"{  c #576051",
"}  c #5C6354",
"|  c #5F6759",
" . c #606957",
".. c #62675C",
"X. c #636B5C",
"o. c #616261",
"O. c #676E60",
"+. c #686F61",
"@. c #6A7264",
"#. c #6E7669",
"$. c #717667",
"%. c #71776A",
"&. c #737A6D",
"*. c #747C6D",
"=. c #757D6F",
"-. c #747E6F",
";. c #767E6F",
":. c #737A6B",
">. c #757676",
",. c #767D70",
"<. c #777F72",
"1. c #767E70",
"2. c #787F70",
"3. c #797F73",
"4. c #788071",
"5. c #798173",
"6. c #7A8173",
"7. c #798273",
"8. c #7D8272",
"9. c #798174",
"0. c #7A8274",
"q. c #7C8475",
"w. c #7D8576",
"e. c #7E8677",
"r. c #7D8577",
"t. c #7E8578",
"y. c #7F8778",
"u. c #7F8879",
"i. c #808779",
"p. c #81897A",
"a. c #808879",
"s. c #828B7D",
"d. c #838D7D",
"f. c #848C7D",
"g. c #848C7E",
"h. c #868E7F",
"j. c #838B7C",
"k. c #878F80",
"l. c #888E83",
"z. c #8A9182",
"x. c #8B9383",
"c. c #8B9384",
"v. c #8E9687",
"b. c #8B9384",
"n. c #8F9788",
"m. c #8F9888",
"M. c #91998A",
"N. c #909889",
"B. c #959D8E",
"V. c #949C8D",
"C. c #969C8F",
"Z. c #969C91",
"A. c #99A192",
"S. c #9BA394",
"D. c #A0A59C",
"F. c #A0A899",
"G. c #A4AC9D",
"H. c #AEB3A8",
"J. c #B3B8AD",
"K. c #DCDDDC",
"L. c #DFDFE0",
"P. c #E0DFE0",
"I. c #E2E2E2",
/* pixels */
"                                                                                                                  ",
"                                                                                                                  ",
"                                                  - v P W P v                                                     ",
"                                              + l / t.v.B.v.t./ g                                                 ",
"                                            q b X.x.m.d.s.d.m.x.X.n 0                                             ",
"                                      : % : L } 2.c.k.n.N.n.k.c.2.} L : + *                                       ",
"                                  p a ....Y ) } <.g.N.S.G.S.N.g.<.} ) Y ) ) a p                                   ",
"                                d ' &.w.8.R ) ' &.x.B.A.F.A.B.x.&.' ) R } @.&.' d                                 ",
"                              ! &.;.5.i.8.R ^ ) X.;.c.B.B.B.c.;.X.( ^ R } @.5.;.&.! p                             ",
"                            n @.;.;.5.i.8.T ^ ^ | X.@.5.a.5.@.X.| ( ) T } @.5.;.;.@.n                             ",
"                        a / _ @.5.5.$.w.8.U R T $.$.@.X.| X.@.$.$.^ ( U } @.5.5.5.@._ /                           ",
"                      a ' t.' @.5.5.;.a.8.J K ' @.2.&.` / ` &.2.+.) U J } @.5.;.&.@.' t.'                         ",
"                      / 9.g.' @.5.w.a.g.$.j U @.b ; q R @.U q ; b X.c h } ;.u.w.5.@.' g.9./                       ",
"                    l %.w.g.' #.s.s.9.| Q h h _ c u Y ) ' R T f c _ h j U { 5.s.s.#.' g.w.%.l                     ",
"                  - Y &.w.g.} 5.<.| ^ Q R c w c R _  .L % L  ._ R c w j Y Q ^ | <.5.} g.w.&.Y :                   ",
"                  : ' &.w.c.<.O.^ Q Q Q Q U ; : Y ) / Y h Y / ) Y : ; c T T Q Q ^  .;.c.w.&.' :                   ",
"                9 W ' $.w.c.@.Y Q Q Q R T Q l % 0 0 R ) ^ / ^ q 0 % f Y Q Q / ^ R L @.x.w.$.' W 9                 ",
"                a ..' ;.s.+._ ^ L Q Q T ^ ^ U e e % c { ' ` x = e e c T Q ! ^ Q L ^ ` +.s.;.' ..a                 ",
"              + Q O.} w.@./ ^ _ ^ L Q Q ^ Q Y h w u h c c c i u w h Y Q Q ! Q L ^ _ Q ^ @.w.} O.Q +               ",
"              + ^ #.#.@./ Q T R _ Q L T T Y j w # ; U |  .[ c ; # w j Y T T L Q _ Q Y Q / @.#.#.^ +               ",
"              + ^ a.:.^ Q Q Y T Q / Y c z w 4 $ X . 0 ^ _ T 0 . X $ 4 w z c Y / ^ Q ! Q Q ^ $.s.^ +               ",
"              p _ i._ h U R Q Q Q Q R c 4 > 1 8 @ . o ; ; ; o . @ 8 1 > 4 c R Q Q Q Q R U h } d._ p               ",
"            o l ` @.^ ) c c U R Q Y c 6 5 8 t 8 @ . . . . . . . @ 8 t 8 5 6 c Y Q Q U x c / / #.` l o             ",
"            o x +.' ^ / ) _ c c J c 4 5 8 t t 8 @ . . . . . . . @ 8 t t 8 5 4 c J c c _ ) / ^ { +.c o             ",
"            X U O.Q T Q Q ^ _ ^ e = < t M V N 8 @ . . . . . . . @ 8 N V M t < = e ( _ / R I T _ @.U o             ",
"            + } } Q Q Q Y Y Q L 4 , 8 M C C N 8 @ . . . . . . . @ 8 N C C M 8 , 4 L ! ! R U T ^ | } +             ",
"            + ' ( Y T Q Q Q Y e & 8 M Z D C N 8 @ . . . . . . . @ 8 N C D Z M 8 & e Y Q Q Q T Y ) ' +             ",
"            + n j j U Y Y Y j 4 < M C H D C N 8 @ . . . . . . . @ 8 N C D H C M < 4 j Y Y Y U j j n O             ",
"            + ' } R h h c J s $ 8 V C G S V M 8 @ . . . . . . . @ 8 M V S G C V 8 $ e J k h h R } ' +             ",
"            + ] ' ` { _ c s % , 8 B r B N 4 5 8 @ . . . . . . . @ 8 5 4 N B r B 8 , % s c _ { _ ` / +             ",
"            + Q ^ Q ^ ^ ) T + % 5 > Y f s ) a > @ . . . . . . . @ > a ) s f Y > 5 % + T ) ^ Q T ^ T +             ",
"            + Y ^ T T Q R c - Y n a ^ { R f 4 , @ . . . . . . . @ , 4 f R { ^ a n Y - c R Q Q T Q n o             ",
"            o n T Y Y Y U h - R ` | ^ s 4 & , 8 @ . . . . . . . @ 8 , & 4 s ^ | ` R ; h U Y T T Y h o             ",
"            o l J J J J J e % n _ f s # , N M 3 @ . . . . . . . @ 3 M N , # s f _ L % e J J J J c e o             ",
"            o e h h h h h % % T c % # 1 V C 7 5 @ . . . . . . . @ 5 7 C V 1 # % c T - % h h h h h 0 .             ",
"            + ^ | | | | } Y - L s 5 3 C Z 7 n l o . . . . . . . o l n 7 Z C 3 5 s L - Y } | | } _ L o             ",
"            + Q | | | } { T + # 5 V Z H B 0 O.$.: . . . . . . . : $.O.0 B H Z V 5 # + T { | | | { P o             ",
"            o L _ _ _ / ^ P # 2 M Z Z H B ; c %.a . . . . . . . a %.c ; B H Z Z N 2 # P ^ _ _ _ / n o             ",
"            o x R T Q Q Q n # 8 N Z Z F A 7 @ / a . . . . . . . a / @ 7 A F Z Z N 8 # n Q Q T R Q b o             ",
"            o h Y Y Y Y Y l # 8 N Z Z F A t & Y 9 . . . . . . . 9 Y & t Z F Z Z N 8 # l Y Y Y Y Y h o             ",
"            . w c J J J c e # 8 N Z Z H Z 5 + Y 9 . . . . . . . 9 Y + 5 Z H Z Z N 8 # e c J J J c w .             ",
"            o w h j h j h - @ 8 N Z Z G B ; l P - . . . . . . . - P l ; B G Z Z N 8 @ - h h h j h w o             ",
"            + T  . . . .{ Y % 8 N Z C H N = : # o . . . . . . . o # : = N H C Z N 8 % Q  . . . .` Y O             ",
"            + W } } } { _ n # 8 N Z V A V $ # > @ . . . . . . . @ > # $ V A V Z N 8 % ^ } } } } ` L o             ",
"            O L _ _ ) R Y s # 8 N Z Z H Z M 8 8 @ . . . . . . . @ 8 8 M Z H Z Z N 3 % Y ) ) _ _ ^ n o             ",
"            o x R T Y Y R c # 8 N Z Z F D V M 8 @ . . . . . . . @ 8 M V D F Z Z N 8 # n R T ! Q Q x o             ",
"            o h U c c Y U l # 8 N Z Z F G C N 8 @ . . . . . . . @ 8 N C G F Z Z N 8 # l U Y U U U h o             ",
"            . w j u j c k w # 8 N Z C F Z N M 8 @ . . . . . . . @ 8 M N Z F C Z N 8 # w c c c c c w .             ",
"            o e c c c c h : + , M B y M M 6 4 7 @ . . . . . . . @ 7 4 6 M M y B M , + : c c c c j e o             ",
"            + T X.X.X.X.} W + ; 5 $ E l l _ a > @ . . . . . . . @ > a _ l l E $ 5 ; + Q X.X.X.X.{ Y o             ",
"            o n _ _ _ _ _ Y ; T Y l / ` Y w 4 5 @ . . . . . . . @ 5 4 w Y ` / l Y T ; P _ _ _ _ _ n o             ",
"            o n ^ Q Q Q Q P ; T ` [ R w ; > 7 8 @ . . . . . . . @ 8 7 > ; w R [ ` T ; P Q Q Q Q ^ n o             ",
"            o l Q Q Q Q Q b % L ) s e # 1 B M 3 @ . . . . . . . @ 3 M B 1 # e s ) L % b Q Q Q Q Q l o             ",
"            o h U U U U U h ; R c % # 7 C C N 8 @ . . . . . . . @ 8 N C C 7 # % c R ; h U U U U U h o             ",
"            . 0 j z z j j 0 # c s 7 M Z F C N 1 X . . . . . . . X 1 N C F Z M 7 s c # 0 j z z z j 0 .             ",
"            . w U L c c h - X # 5 C C Z Z M 1 @ . . . . . . . . . @ 1 M Z Z C C 5 # X ; L L c c h w .             ",
"            X L X.| _ _ ^ n # 8 N Z N B 7 # . % : ; ; ; ; ; ; ; : % . # 7 B N Z N 8 # Y X.} _ _ ^ l o             ",
"            + Y _ / Q Q Q P % 8 N A 1 $ . * v E ( ~ ~ ~ ~ ~ ~ ~ ( E v * . $ 1 A N 8 % T _ / Q Q ^ n o             ",
"            o l Q Q Q Q R c # 7 , $ + * m ! o.o.o.o.o.o.o.o.o.o.o.o.o.! m * + $ , 7 # b Q Q Q Q Q l o             ",
"            o f K U U U I h X X + - o.l.Z.Z.Z.B.Z.Z.Z.Z.Z.Z.Z.Z.Z.B.Z.Z.Z.l.o.- + X X h J U U U K f o             ",
"            . 0 u k c c u 0 . + o.D.H.J.J.J.J.J.J.J.J.J.J.J.J.J.J.J.J.J.J.J.H.D.o.+ . 0 u c c k u 0 .             ",
"            . % ; ; ; ; ; % * >.K.K.K.K.K.K.K.K.K.K.K.K.K.K.K.K.K.K.K.K.K.K.K.K.K.>.* % ; ; ; ; ; % .             ",
"              . o % : p p : ! K.I.P.L.L.                                                                          ",
"                                                                                                                  "
};
