/* XPM */
static char *result[] = {
/* columns rows colors chars-per-pixel */
"64 64 48 1 ",
"  c #403F40",
". c #424140",
"X c #444240",
"o c #454241",
"O c #464340",
"+ c #464341",
"@ c #474341",
"# c #464441",
"$ c #484441",
"% c #494442",
"& c #574F44",
"* c #584F44",
"= c #584F45",
"- c #575044",
"; c #61564B",
": c #63594C",
"> c #655A4D",
", c #675B4D",
"< c #665B4E",
"1 c #665C4E",
"2 c #675D4E",
"3 c #675D4F",
"4 c #685D4E",
"5 c #685D4F",
"6 c #695F4F",
"7 c #6A5F4F",
"8 c #695E50",
"9 c #695F50",
"0 c #695F51",
"q c #6A5F50",
"w c #6B6051",
"e c #6B6151",
"r c #6B6152",
"t c #6C6151",
"y c #6D6352",
"u c #6D6353",
"i c #6E6352",
"p c #6F6554",
"a c #706554",
"s c #726856",
"d c #756B58",
"f c #766D5F",
"g c #776D5F",
"h c #7A7062",
"j c #7A7162",
"k c #7E7565",
"l c #827969",
"z c #877E6D",
/* pixels */
"zfzzlzzkkfllkzjzlklzkkzzllzkzzlzlzllllklzlkllkkjkzzzlhkzzllzlzz ",
"z-------------------------=---------&&------------------------- ",
"k----------------------------&---*-----------------&----------- ",
"l--ads-----------pdpssssdspsededdppdssyddudassusdasasspssssds--.",
"l--ddssaau------aapsusssdpdssaaiwsyduaduydsdddyadsssdsyysssdd--.",
"k--dapydydays---aduasssadspasdpupysdssasseeyssdpusauesssdaasd-- ",
"k--seaa9pyapaiyspdudedsddssasaesudaysdapyssae<psa9dss9dsusdds--.",
"z-=ssdssspadudsdadwsdadisysddssddadpdissdisyppdsdepsddu3eydas-- ",
"k--dsayeadadyddssadads9pdsspapduadedyses89pswsuus<sududsasdwd-- ",
"z-*aayaesaewdeaasaassaasspussdysa9udyasasaysy9dwaapsssssassas--.",
"f--ydysdsa<usuddaeaeaddddsdyiysesdadpsspddadddyepwassuussusyy--.",
"l--u9we9espyaswausyssasdsyydaa9sdsauadssspsuesasausaasduaaspd-- ",
"g--yssdpsuydssseypyupiuasd9ddaippdsdeuwwyudyy8dpawuusiuewadas-- ",
"k--uadssaydudwswpdaaisd0ypdupe3aspuypsuespuypdasdueauuaupsdds--.",
"l--psasaasu5w8wyd9spdawsdpdwsdwdsaisdasuaus>aspwwadasyadausse--.",
"o+. ses5sad9ypuupusswasssayses5daadey9a8spspyaadeuaawusessasu-& ",
"+.$ wdaauepe3sswewadssdsyapadpsaspdssaa1adaesdsuapdapupssuepa&-.",
"k--ewu5uiw9>dupsupapuaaaapyuea9dasarssussse5usdw9psyy<y9sswsd--.",
"z-&ayyaau8<uysuypyydwappiypyu5du9apuespssspdaaue9awsaddaspsa9--o",
"l-*uapasdss3aaa9syuuadpuwsesdsssdpwppydddsdudsasasswsueaddpes--.",
"k--dse9supeaasuay3s,wusesssuappd5psipasssuwdydsuspapuuadsussd-- ",
"k=-waassusdueay5weieswus9easasuddpsswsdusss9aaiasuupwesadas$..  ",
"g--seuapyaau1tau6sspaissywaysadudssdudpassdpdpdwssayapswusuo ..#",
"l--9euu93eus59ausap9upuppyaaaasiysewsssisdasesasausayseaua .y--.",
"l*-apassws3epy9epyde9asyp8sapdswpa1dysdpdsuaapdwypyedewads  s-- ",
"k--sysasy48w9yesauaudseye8saeasaapspsassdssysd1e5assyuusaeapd-& ",
"z--pa9y9999dyudw1sesyiupssadsassdsusssdusspapwpddsaappsdpyssp--.",
"l-&--sus9ausepap3aiaaespdps5puppsswdssaypsdaatudsdadsdsssw3sd-- ",
"l----suseep9ye5ew3ress9aseapiu9eaasedipdapdpepsappay3pdssudss--.",
"k----yp5w3aapuss<8yseeawp9a9asapdwppsudpsassppsasp9ssaa3sayss&- ",
"l----duyeyewu9pa993u9pspaawsdasdyssdpudspyadssuauedeasdsasd9d-- ",
"l&---w15e5ydewuy9e9psuyuia9ddd>ssyeasyssspsaudds6dayyup9apwdy-&o",
"z-&--9sepe2s5a<epwpssaaysssaaedaappuddwespsesdisysdssppp3ssud--.",
"z*---p8yssuruees;y9sae9p9usspuydsasddpsdddwsdsddpdspspsssudus-& ",
"k----sss:wsuedaydysuasyusaqapsaapdpsisdpadsay8espdpussdaasydd-- ",
"k----------yuesasaysysuyuddsssasyssdeuysdppdapppses5eaawpypup&-.",
"g------------as5wsayaaasdds9sawsssdssdasssyaa9ss9ussysdps8eds--o",
"l=-----------sawdaypspysyaydpsspdudwsdsdddysdwadypadpssyiadsa--.",
"l&-----------us5ayapsdydyypyudypassdaswsssdpduddysasusudsssed&-.",
"l-*--w9paud-----uwdy9dppessspdssdpsddasdssdddsadwuddssyydds9---.",
"k----yusawa-----papaspydsa9ssssedsssdsssssdddasspdsap9yas8su--- ",
"l-&--pseysd-----syaaasdyysssssdsydasdsdsssydassdyisses7adsd----.",
"g--yupu8sddpqypuuadsespydd9ssipdddddssdssddasppsdppysppay------ ",
"l--sssdpapyudsypdwyassddssdspddddddssssppdssddpauswsupisa------.",
"l--wdseu3esdssus9ydussdpsdspddysissdddyeididspdaipssasasa------.",
"l&-sduesdp99sswawspysppedsdsaasudddesdsydddyseysdsss4sauwsy---- ",
"g--yuaysaye99wsa99pdyddsspspaddassydddppaspdyis5<awddawsssu----$",
"h&*suuuy9spdasupusapppsasessdyssdddwssdsdspssaduaiaaaisadddd---.",
"k--assysepesaee9essusspdypsepdsuppspspssudpseyuuyaydpsauadss---.",
"l=-sdpdapaeuuppuysyaayssypssdsdpssssdsedadpusa8ypsssuasssdas---.",
"l--esssuayasw5ysaapssaeaydsds9sddsddsasyydasaddaddawaeasusdd---.",
"z--assasaa9ea9usswsapssya2ddappuypspdd2ddspyaipaeuasaduudaas---.",
"h&-apsesassuu<duusdpaaysysssusdasddydadsussaauaydsayawdadassd--.",
"z-=paduas9auasdysydsdsassadpy5espssdaddsudapo.dsddappssaaddad-- ",
"k--puusaueaaawpap98ussdussssdedsaaaespsepdad %seuussadsausdds-- ",
"l=-aaspduaseddewssiapyddadpdspsspaspedya@ +#ssspddasssddddydp--.",
"z*-u9dduuss<asuwapsads---spssusssdssaaid%+ .ddadsdsssapsusaaa-- ",
"k&-eaydewpassdsuddudpy---ddpsdsaspsuddrd.Xassdaudpdpsddpddaus--.",
"z--9dudussus5w9saadpsa---apdy9puisssdspdXXdasdypwsseyaeddaadp--.",
"l-&padsssupaus5ss--------sppsudwasspsyo .oaapasdsuasdapsdasse--.",
"z--------&-----------------*-------*-&o .o-=-----------------*- ",
"l-------------------------&-----------X.&------&-&--------*---- ",
"z-----------&----&-&-------------&----. ---------------&-------.",
".. oo. X +.+ .+o. # o.. ..   O ..X.X  .    ... .+@oo$ X.+  .   +"
};
