/* XPM */
static char *result[] = {
/* columns rows colors chars-per-pixel */
"64 64 137 2 ",
"   c #16151D",
".  c #18171F",
"X  c #19181F",
"o  c #181720",
"O  c #1B1A23",
"+  c #1E1E29",
"@  c #201F29",
"#  c #202127",
"$  c #24252D",
"%  c #242532",
"&  c #2A2A31",
"*  c #23263B",
"=  c #25283E",
"-  c #2E2E3D",
";  c #302F38",
":  c #33333B",
">  c #39373F",
",  c #242743",
"<  c #262A43",
"1  c #2A2E44",
"2  c #272B49",
"3  c #2A2E4A",
"4  c #2D3144",
"5  c #2C324B",
"6  c #343542",
"7  c #373946",
"8  c #3B3A43",
"9  c #333649",
"0  c #36384B",
"q  c #3B3D4E",
"w  c #2A2F50",
"e  c #2E3453",
"r  c #2F3559",
"t  c #303655",
"y  c #333A55",
"u  c #3B3E50",
"i  c #30375B",
"p  c #333B5C",
"a  c #363E62",
"s  c #3F455D",
"d  c #374065",
"f  c #384066",
"g  c #374068",
"h  c #3A436C",
"j  c #3C4671",
"k  c #3C4974",
"l  c #3E4C7C",
"z  c #45454C",
"x  c #48464F",
"c  c #414355",
"v  c #4B4A53",
"b  c #504F57",
"n  c #52535D",
"m  c #535460",
"M  c #5B5B65",
"N  c #565968",
"B  c #5C5E6A",
"V  c #5C5F70",
"C  c #615E6A",
"Z  c #62616D",
"A  c #656571",
"S  c #676A74",
"D  c #6A6A76",
"F  c #666A7B",
"G  c #6B6E79",
"H  c #726E7D",
"J  c #6C707C",
"K  c #71727F",
"L  c #3F4E80",
"P  c #404F82",
"I  c #415185",
"U  c #435389",
"Y  c #6A7083",
"T  c #747482",
"R  c #7A7686",
"E  c #757984",
"W  c #797A86",
"Q  c #757988",
"!  c #7B7D8B",
"~  c #7B7F92",
"^  c #817E8F",
"/  c #827F90",
"(  c #7E818D",
")  c #7C8191",
"_  c #80848E",
"`  c #838593",
"'  c #888596",
"]  c #858995",
"[  c #8A8798",
"{  c #868A9C",
"}  c #8B8A9A",
"|  c #8F939F",
" . c #8F94A3",
".. c #9295A6",
"X. c #9599A4",
"o. c #9096AA",
"O. c #959AA9",
"+. c #9A9FAE",
"@. c #9FA3AE",
"#. c #9DA2B1",
"$. c #A1A6B5",
"%. c #A3A8B7",
"&. c #A4AABA",
"*. c #A8ADBB",
"=. c #A4AAC0",
"-. c #AFB6C7",
";. c #B0B6C4",
":. c #B5BAC7",
">. c #B1B7C8",
",. c #B5BBCC",
"<. c #B9BFCF",
"1. c #B7BDD1",
"2. c #B9BFD0",
"3. c #BCC3D3",
"4. c #BBC2DC",
"5. c #BFC6E0",
"6. c #C1C7D6",
"7. c #C0C7DF",
"8. c #C5CBDB",
"9. c #C8CFDF",
"0. c #CAD0DF",
"q. c #C0C7E0",
"w. c #C2CAE2",
"e. c #C8CFE4",
"r. c #CDD3E4",
"t. c #CED5EA",
"y. c #D1D7E6",
"u. c #D2D9EC",
"i. c #D9DFEE",
"p. c #D8DFF2",
"a. c #DAE2F3",
"s. c #DFE6F8",
"d. c #E0E7F8",
"f. c #E4EBFB",
"g. c #E8EFFF",
"h. c #EAF1FF",
"j. c None",
/* pixels */
"j.j.j.j.j.j.j.j.j.j.j.j.j.j.j.j.j.j.j.j.j.j.j.j.j.j.j.j.j.j.j.j.j.j.j.j.j.j.j.j.j.j.j.j.j.j.j.j.j.j.j.j.j.j.j.j.j.j.j.j.j.j.j.j.",
"j.j.j.j.j.j.j.j.j.j.j.j.j.j.j.j.j.j.j.j.j.j.j.j.j.j.j.j.j.j.j.j.j.j.j.j.j.j.j.j.j.j.j.j.j.j.j.j.j.j.j.j.j.j.j.j.j.j.j.j.j.j.j.j.",
"j.j.j.j.j.j.j.j.j.j.j.j.j.j.j.j.j.j.j.j.j.j.j.j.j.j.j.j.j.j.j.j.j.j.j.j.j.j.j.j.j.j.j.j.j.j.j.j.j.j.j.j.j.j.j.j.j.j.j.j.j.j.j.j.",
"j.j.j.j.j.j.j.j.j.j.j.j.j.j.j.j.j.j.j.j.j.j.j.j.j.j.j.j.j.j.j.j.j.j.j.j.j.j.j.j.j.j.j.j.j.j.j.j.j.j.j.j.j.j.j.j.j.j.j.j.j.j.j.j.",
"j.j.j.j.j.j.j.j.j.j.j.j.j.j.j.j.j.j.j.j.j.j.j.j.j.j.j.j.j.j.j.j.j.j.j.j.j.j.j.j.j.j.j.j.j.j.j.j.j.j.j.j.j.j.j.j.j.j.j.j.j.j.j.j.",
"j.j.j.j.j.j.j.j.j.j.j.j.j.j.j.j.j.j.j.j.j.j.j.j.j.j.j.j.j.j.j.j.j.j.j.j.j.j.j.j.j.j.j.j.j.j.j.j.j.j.j.j.j.j.j.j.j.j.j.j.j.j.j.j.",
"j.j.j.j.j.j.j.j.j.j.j.j.j.j.j.j.j.j.j.j.j.j.j.j.j.j.j.j.j.j.j.j.j.j.j.j.j.j.j.j.j.j.j.j.j.j.j.j.j.j.j.j.j.j.j.j.j.j.j.j.j.j.j.j.",
"j.j.j.j.j.j.j.j.j.j.j.j.j.j.j.j.j.j.j.j.j.j.j.j.j.j.j.j.j.j.j.j.j.j.j.j.j.j.j.j.j.j.j.j.j.j.j.j.j.j.j.j.j.j.j.j.j.j.j.j.j.j.j.j.",
"j.j.j.j.j.j.j.j.j.j.j.j.j.j.j.j.j.j.j.j.j.j.j.j.j.j.j.j.j.j.j.j.j.j.j.j.j.j.j.j.j.j.W ,.( j.j.j.j.j.j.j.j.j.j.j.j.j.j.j.j.j.j.j.",
"j.j.j.j.j.j.j.j.j.j.j.j.j.j.j.j.j.j.j.j.j.j.j.j.j.j.j.j.j.j.j.j.j.j.j.j.j.j.j.j.] 8.u.h.9.W j.j.j.j.j.j.j.j.j.j.j.j.j.j.j.j.j.j.",
"j.j.j.j.j.j.j.j.j.j.j.j.j.j.j.j.j.j.j.j.j.j.j.j.j.j.j.j.j.j.j.j.j.j.j.j.j.j.j.j.j.*.e.a.h.3.j.j.j.j.j.j.j.j.j.j.j.j.j.j.j.j.j.j.",
"j.j.j.j.j.j.j.j.j.j.j.j.j.j.j.j.j.j.j.A *.*.j.j.j.j.j.j.j.j.j.j.j.j.j.j.j.j.j.j.j.W 1.4.a.i.K j.j.j.j.j.j.j.j.j.j.j.j.j.j.j.j.j.",
"j.j.j.j.j.j.j.j.j.j.j.j.j.j.j.j.j.j.j.*.h.f.r.-.j.j.j.j.j.j.j.j.j.j.j.j.j.j.j.j.j.j.| 4.w.f.X.j.j.j.j.j.j.j.j.j.j.j.j.j.j.j.j.j.",
"j.j.j.j.j.j.j.j.j.j.j.j.j.j.j.j.j.j.] d.f.u.4.@.j.j.j.j.j.j.j.j.j.j.j.j.j.j.j.j.j.j.| w.4.a.X.j.j.j.j.j.j.j.j.j.j.j.j.j.j.j.j.j.",
"j.j.j.j.j.j.j.j.j.j.j.j.j.j.j.j.j.j.O.f.r.4.o.j.j.j.p p j.j.j.j.j.j.j.j.j.j.j.j.j.j.%.4.4.u...j.j.j.j.j.j.j.j.j.j.j.j.j.j.j.j.j.",
"j.j.j.j.j.j.j.j.j.j.4 e a a 5 % j.j.9.u.4.4.Q j.j.p U h j.j.j.j.j.j.j.j.j.j.j.j.j.%.4.4.4.u.X.j.j.j.j.j.j.j.j.j.j.j.j.j.j.j.j.j.",
"j.j.j.j.j.j.j.j.j.j.j.4 d k h e * j.u.w.4.4.) j.# r l f 5 j.j.j.j.j.j.j.j.j.j.E #.5.5.2.4.r.T j.j.j.j.j.j.j.j.j.j.j.j.j.j.j.j.j.",
"j.j.j.j.j.j.j.j.j.j.j.j.j.y h a 2 q r.5.4.4.=.v e a k h e * z M ` %.2.1.1.1.1.4.5.4.4.4.r.#.j.j.j.j.j.j.j.j.j.j.j.j.j.j.j.j.j.j.",
"j.j.j.j.j.j.j.j.j.j.j.j.j.j.t f r 9 2.w.4.4.4.{ y 2 r r y ! -.3.8.5.5.4.4.4.5.1.4.4.4.r.*.j.j.j.j.j.j.j.j.j.j.j.j.z Z n j.j.j.j.",
"j.j.j.j.j.j.j.j.j.j.j.j.j.j.6 d g 3 ] e.4.4.4.4.{ 4 * N #.w.4.4.1.4.4.4.4.4.4.4.4.4.q.*.M & j.j.j.j.j.j.j.j.j.> M W S j.j.j.j.j.",
"j.j.j.j.j.j.j.j.j.j.j.j.j.j.e y h p V 8.5.4.4.4.4.=.~ ,.4.4.4.4.5.1.5.4.4.4.2.4.4.4.e.) ; % j.j.j.j.j.j.j.> v D } S j.j.j.j.j.j.",
"j.j.j.j.j.j.j.j.j.j.j.j.j.j.j p a h p F 8.5.4.4.5.5.4.4.4.4.4.4.4.5.4.4.4.4.5.5.5.e.s.&.6 % j.j.j.j.j.$ 8 Z ^ } S j.j.j.j.j.j.j.",
"j.j.j.j.j.j.j.j.j.j.j.j.j.j.l f e a h d Y 8.5.4.5.1.4.4.4.4.4.4.4.5.4.5.q.t.p.f.d.g.g.f._ j.j.j.j.> z x n C C C j.j.j.j.j.j.j.j.",
"j.j.j.j.j.j.j.9 p 4 j.j.j.j.l j d e d h a J 3.4.5.2.4.4.4.4.4.w.t.u.p.s.f.g.g.g.g.g.h.g.6.j.j.j.v C T ^ } [ n j.j.j.j.j.j.j.j.j.",
"j.j.j.j.j.j.p I k j.j.j.j.j.j h h d e y f f c V #.4.4.4.4.u.s.f.f.g.g.g.g.g.g.g.f.y.y.g.y.z v C H W ' } ..G j.j.j.j.j.j.j.j.j.j.",
"j.j.j.j.j.y U U f 4 j.j.j.j.h h h h a e 3 5 a r s 1.4.4.a.g.h.h.g.g.g.g.g.g.g.f...: 6 O.0.n D R / ' } ..G j.j.j.j.j.j.j.j.j.j.j.",
"j.j.j.j.j.k U j h f 9 j.j.j.5 i r a f j f e < < 7 3.4.u.g.g.f.r.r.f.h.g.g.g.g.6.;     8 <.Z R ' [ } ..G j.j.j.j.j.j.j.j.j.j.j.j.",
"j.j.j.j.j.P l h h h f 5 j.j.% * * * < e i f a 3 7 >.4.a.g.f...> 6 o.f.g.g.g.h.]       ; :.b C K R [ G j.j.j.j.j.j.j.j.j.j.j.j.j.",
"j.j.j.j.j.l j h j h h h d t a f a a t 3 = 2 i a < ] e.f.g.%.$     $ %.h.g.g.h._       : :.M H A Z z j.j.j.j.j.j.j.j.j.j.j.j.j.j.",
"j.j.j.j.j.L k h h h h h h h h h h h h h p 3 , w , B w.f.h.(   X     n i.g.g.h._       ; :.Z [ ..J j.j.j.j.j.j.j.j.j.j.j.j.j.j.j.",
"j.j.j.j.j.k L h h h h j h h h h h j h h h h y = , 9 >.a.h.(     o   ; y.g.g.h.(       n @.D ..G j.j.j.j.j.j.j.j.j.j.j.j.j.j.j.j.",
"j.j.j.j.j.y I l h h h f f f h f h h h h h h h i < * ] p.h.(         ; r.g.g.h.%.$   % O.W ] J j.j.j.j.j.j.j.j.j.j.j.j.j.j.j.j.j.",
"j.j.j.j.j.j.s l k i r 2 < < < 3 i a f f j l h h f 3 B t.g.$.+   o   b a.g.g.g.f.%.( %.3.S G j.j.j.j.j.j.j.j.j.j.j.j.j.j.j.j.j.j.",
"j.j.j.j.j.j.j.1 1 , < e e 3 5 1 * , 2 i a c h h h f t O.a.i.B +   $ %.h.g.g.g.g.h.h.a._ M j.j.j.j.j.j.j.j.j.j.j.j.j.j.j.j.j.j.j.",
"j.j.j.j.j.j.j.j.y l l j j h h f p p w , w a a h h j a y +.f.a.$.! %.f.g.g.g.g.g.h.f. .: j.j.j.j.j.j.j.j.j.j.j.j.j.j.j.j.j.j.j.j.",
"j.j.j.j.j.j.j.k L k j g h h h h h h a a 3 * 2 i f h h p 0 ! 6.g.h.h.h.g.h.h.f.r.%.Y 6 j.j.j.j.j.j.j.j.j.j.j.j.j.j.j.j.j.j.j.j.j.",
"j.j.j.j.j.j.d I g i 5 t e 5 p d j h h h h f t = < e a a i 2 u Q 6.r.r.r.%._ T q 4 3 < j.j.j.j.j.j.j.j.j.j.j.j.j.j.j.j.j.j.j.j.j.",
"j.j.j.j.j.j.k p 4 j.j.j.j.j.j.9 a h c h h h h p 5 3 , < < , , * : 7 7 : 1 2 = e f p * j.j.j.j.j.j.j.j.j.j.j.j.j.j.j.j.j.j.j.j.j.",
"j.j.j.j.j.p d j.j.j.j.j.j.j.j.% = 3 a j h h h h h h a a t 5 5 4 5 1 5 e i y i h h 1 j.j.j.j.j.j.j.j.j.j.j.j.j.j.j.j.j.j.j.j.j.j.",
"j.j.j.j.j.1 j.j.j.j.j.j.j.0 i e t 2 , 2 t f h j h h h h h h j h j h f i 5 p h h e + j.j.j.j.j.j.j.j.j.j.j.j.j.j.j.j.j.j.j.j.j.j.",
"j.j.j.j.j.j.j.j.j.j.j.j.# 5 a y 9 i a r 3 < 1 3 5 a a a a a a p 5 5 < 5 f k p 1 O O j.j.j.j.j.j.j.j.j.j.j.j.j.j.j.j.j.j.j.j.j.j.",
"j.j.j.j.j.j.j.j.j.j.j.j.j.j.j.j.j.j.1 t a a r 5 < * * * * * * * , 2 r f f e # o o j.j.j.j.j.j.j.j.j.j.j.j.j.j.j.j.j.j.j.j.j.j.j.",
"j.j.j.j.j.j.j.j.j.j.j.j.j.j.j.j.j.j.o o # < t a f p i i r i i i a d a 4 % o .   o j.j.j.j.j.j.j.j.j.j.j.j.j.j.j.j.j.j.j.j.j.j.j.",
"j.j.j.j.j.j.j.j.j.j.j.j.j.j.j.j.j.j.O o   X j.= 5 5 a a p 3 1 1 < + O       . . o o o o + j.j.j.j.j.j.j.j.j.j.j.j.j.j.j.j.j.j.j.",
"j.j.j.j.j.j.j.j.j.j.j.j.j.j.j.j.j.j.O j.j.j.j.j.j.j.$ + + X         .   . . . . o X .   . O j.j.j.j.j.j.j.j.j.j.j.j.j.j.j.j.j.j.",
"j.j.j.j.j.j.j.j.j.j.j.j.j.j.j.j.j.j.j.j.j.j.j.j.j.j.j.    X   o   . . . . . . .   . . o . o j.j.j.j.j.j.j.j.j.j.j.j.j.j.j.j.j.j.",
"j.j.j.j.j.j.j.j.j.j.j.j.j.j.j.j.j.j.j.j.j.j.j.j.j.j.j.      X   o . . . . .   o . o X . .   O j.j.j.j.j.j.j.j.j.j.j.j.j.j.j.j.j.",
"j.j.j.j.j.j.j.j.j.j.j.j.j.j.j.j.j.j.j.j.j.j.j.j.j.j.j.X   X X o . . . .   o O j.j.j.o o . . . j.j.j.j.j.j.j.j.j.j.j.j.j.j.j.j.j.",
"j.j.j.j.j.j.j.j.j.j.j.j.j.j.j.j.j.j.j.j.j.j.j.j.j.j.j.o   o o   X X     O j.j.j.j.j.j.O   . X j.j.j.j.j.j.j.j.j.j.j.j.j.j.j.j.j.",
"j.j.j.j.j.j.j.j.j.j.j.j.j.j.j.j.j.j.j.j.j.j.j.j.j.j.j.j.X   X X       + j.j.j.j.j.j.j.j.. .   j.j.j.j.j.j.j.j.j.j.j.j.j.j.j.j.j.",
"j.j.j.j.j.j.j.j.j.j.j.j.j.j.j.j.j.j.j.j.j.j.j.j.j.j.j.j.o     X o   o j.j.j.j.j.j.j.j.j.. . O j.j.j.j.j.j.j.j.j.j.j.j.j.j.j.j.j.",
"j.j.j.j.j.j.j.j.j.j.j.j.j.j.j.j.j.j.j.j.j.j.j.j.j.j.j.j.@ o   X X o @ j.j.j.j.j.j.j.j.o . O j.j.j.j.j.j.j.j.j.j.j.j.j.j.j.j.j.j.",
"j.j.j.j.j.j.j.j.j.j.j.j.j.j.j.j.j.j.j.j.j.j.j.j.j.j.j.j.j.o   o   O j.j.j.j.j.j.j.j.+ o O j.j.j.j.j.j.j.j.j.j.j.j.j.j.j.j.j.j.j.",
"j.j.j.j.j.j.j.j.j.j.j.j.j.j.j.j.j.j.j.j.j.j.j.j.j.j.j.j.j.# o   o j.j.j.j.j.j.j.j.j.j.j.j.j.j.j.j.j.j.j.j.j.j.j.j.j.j.j.j.j.j.j.",
"j.j.j.j.j.j.j.j.j.j.j.j.j.j.j.j.j.j.j.j.j.j.j.j.j.j.j.j.j.j.+ o o O j.j.j.j.j.j.j.j.j.j.j.j.j.j.j.j.j.j.j.j.j.j.j.j.j.j.j.j.j.j.",
"j.j.j.j.j.j.j.j.j.j.j.j.j.j.j.j.j.j.j.j.j.j.j.j.j.j.j.j.j.j.j.O   o j.j.j.j.j.j.j.j.j.j.j.j.j.j.j.j.j.j.j.j.j.j.j.j.j.j.j.j.j.j.",
"j.j.j.j.j.j.j.j.j.j.j.j.j.j.j.j.j.j.j.j.j.j.j.j.j.j.j.j.j.j.j.j.O X + j.j.j.j.j.j.j.j.j.j.j.j.j.j.j.j.j.j.j.j.j.j.j.j.j.j.j.j.j.",
"j.j.j.j.j.j.j.j.j.j.j.j.j.j.j.j.j.j.j.j.j.j.j.j.j.j.j.j.j.j.j.j.j.j.o O j.j.j.j.j.j.j.j.j.j.j.j.j.j.j.j.j.j.j.j.j.j.j.j.j.j.j.j.",
"j.j.j.j.j.j.j.j.j.j.j.j.j.j.j.j.j.j.j.j.j.j.j.j.j.j.j.j.j.j.j.j.j.j.j.j.j.j.j.j.j.j.j.j.j.j.j.j.j.j.j.j.j.j.j.j.j.j.j.j.j.j.j.j.",
"j.j.j.j.j.j.j.j.j.j.j.j.j.j.j.j.j.j.j.j.j.j.j.j.j.j.j.j.j.j.j.j.j.j.j.j.j.j.j.j.j.j.j.j.j.j.j.j.j.j.j.j.j.j.j.j.j.j.j.j.j.j.j.j.",
"j.j.j.j.j.j.j.j.j.j.j.j.j.j.j.j.j.j.j.j.j.j.j.j.j.j.j.j.j.j.j.j.j.j.j.j.j.j.j.j.j.j.j.j.j.j.j.j.j.j.j.j.j.j.j.j.j.j.j.j.j.j.j.j.",
"j.j.j.j.j.j.j.j.j.j.j.j.j.j.j.j.j.j.j.j.j.j.j.j.j.j.j.j.j.j.j.j.j.j.j.j.j.j.j.j.j.j.j.j.j.j.j.j.j.j.j.j.j.j.j.j.j.j.j.j.j.j.j.j.",
"j.j.j.j.j.j.j.j.j.j.j.j.j.j.j.j.j.j.j.j.j.j.j.j.j.j.j.j.j.j.j.j.j.j.j.j.j.j.j.j.j.j.j.j.j.j.j.j.j.j.j.j.j.j.j.j.j.j.j.j.j.j.j.j.",
"j.j.j.j.j.j.j.j.j.j.j.j.j.j.j.j.j.j.j.j.j.j.j.j.j.j.j.j.j.j.j.j.j.j.j.j.j.j.j.j.j.j.j.j.j.j.j.j.j.j.j.j.j.j.j.j.j.j.j.j.j.j.j.j."
};
