/* XPM */
static char *result[] = {
/* columns rows colors chars-per-pixel */
"64 64 4 1 ",
"  c #212021",
". c #2B2721",
"X c #474136",
"o c #4D483F",
/* pixels */
"XXXXXXXXXXXXXXXXX  XXXXXXXXXXXX  XXXXXXXXooXXXXXXXX  oooXXXXXX  ",
"XXXXXXXXXXXXXXXXX  XXXXXXXXXXXX  XXXXXXXXooXXXXXXXX  oooXXXXXX  ",
"XX....oooooooo.    .......ooo..  XX....oooo.....oooooooo......  ",
"XX....oooooooo.    .......ooo..  XX....oooo.....oooooooo......  ",
"XX..oooooooooooooooooo....ooo..    ..ooooooooooooooooooooo....  ",
"XX..oooooooooooooooooo....ooo..    ..ooooooooooooooooooooo....  ",
"XX..ooooooooooooooooooooooooo..  ooooooooooooooooooooooooooo..  ",
"XX..ooooooooooooooooooooooooo..  ooooooooooooooooooooooooooo..  ",
"ooooooooooooooooooooooooooooo..  XXooooooooooooooooooooooooo..  ",
"ooooooooooooooooooooooooooooo..  XXooooooooooooooooooooooooo..  ",
"ooooooooooooooooooooooooooooo..  XXooooooooooooooooooooooooo..  ",
"ooooooooooooooooooooooooooooo..  XX..ooooooooooooooooooooooo..  ",
"XX....ooooooooooooooooooooooo..  XX..ooooooooooooooooooooo....  ",
"XX....ooooooooooooooooooooooo..  XX..ooooooooooooooooooooo....  ",
"XX....ooooooooooooooooooooooo..  XX..ooooooooooooooooooooo....  ",
"XX....ooooooooooooooooooooooo..  XXooooooooooooooooooooooo....  ",
"XX....ooooooooooooooooooooooo..  oooo  ooooooooooooooooooo....  ",
"XX....ooooooooooooooooooooooo..  oooo  ooooooooooooooooooo....  ",
"XX..ooooooooooooooooooooooooo..      oooooooooooooooooo.......  ",
"XX..ooooooooooooooooooooooooo..      oooooooooooooooooo.......  ",
"ooooooooooooooooooooooooooooo..  XXoooooooooooooooooooo.......  ",
"ooooooooooooooooooooooooooooo..  XX..ooooooooooooooooooooooo..  ",
"XXooooooooooooooooooooooooooo..  XX..ooooooooooooooooooooooo..  ",
"XXoooooooooo..ooo..oooooooooo..  XX..ooooooooooooooooooooooo..  ",
"XXoooooooooo..ooo..oooooooooo..  XX..ooooooooooooooooooooooo..  ",
"XXoooooooo.........oooooooo....  XX..ooooooooooooooooooooooo..  ",
"XX..oooooo.........oooooooo....  XX..ooooooooooooooooooooooo..  ",
"XX..ooo............oooooo....    XX..ooooooooooooooooooo....    ",
"XX..ooo............oooooo....    XX..ooooooooooooooooooo....    ",
"XX...........................    XX.......................      ",
"XX...........................    XX.......................      ",
"                                                                ",
"                                                                ",
"XXXXXooXXXXXXXXXXXXXXXXXooXXXXX  XXXXXXXXXXXXXXXXXXXXXXXooXXXX  ",
"XXXXXooXXXXXXXXXXXXXXXXXooXXXXX  XXXXXXXXXXXXXXXXXXXXXXXooXXXX  ",
"XX...oo.....oo..........oo.....  XX.......oooooooo....oooooo..  ",
"XX...oo.....oo..........oo.....  XX.......oooooooo....oooooo..  ",
"XX..oooooooooooo......ooooooo..  XX..ooooooooooooooooooooooo..  ",
"oooooooooooooooo......ooooooo..  XX..ooooooooooooooooooooooo..  ",
"ooooooooooooooooooooooooooooo..  XX..ooooooooooooooooooooooo..  ",
"XX..ooooooooooooooooooooooooo..  XXooooooooooooooooooooooo....  ",
"XX..ooooooooooooooooooooooooo..  XXooooooooooooooooooooooo....  ",
"XX..ooooooooooooooooooooooooo..  ooooooooooooooooooooooooo....  ",
"XX..ooooooooooooooooooooooooo..  ooooooooooooooooooooooooo....  ",
"XX......ooooooooooooooooooooo..  XXooooooooooooooooooooooo....  ",
"XX......ooooooooooooooooooooo..  XXooooooooooooooooooooooo....  ",
"XX......ooooooooooooooooooooo..  XXooooooooooooooooooooo......  ",
"XX......ooooooooooooooooooooo..  XXooooooooooooooooooooo......  ",
"XX......ooooooooooooooooooooo..  XXooooooooooooooooooooo......  ",
"XX....ooooooooooooooooooooooo..  XXooooooooooooooooooooo......  ",
"XX....ooooooooooooooooooooooo..  XX..ooooooooooooooooooooooo..  ",
"XX....ooooooooooooooooooooooo..  XX..ooooooooooooooooooooooo..  ",
"XX..ooooooooooooooooooooooooo..  XX..ooooooooooooooooooooooo..  ",
"XX..ooooooooooooooooooooooooo..  XX..ooooooooooooooooooooooo..  ",
"XX..ooooooooooooooooooooooooo..  XX..ooo..oooooooooooooooooo..  ",
"    ooooooooooooooooooooooooo..  XX..ooo..oooooooooooooooooo..  ",
"    oooooooo....ooooooooooooo..  XXooooo  oooooooooooooooo....  ",
"XXXX  oooooo....ooooooooooooo..  XXooooo  oooooooooooooooo....  ",
"XXXX  oooooo....ooooooooo......  XX...oo  ....oooooooooo......  ",
"XX..oooooooo....ooooooooo......  XX...oo  ....oooooooooo......  ",
"XX.........................      XX.......  ................    ",
"XX.........................      XX.......  ................    ",
"                                                                ",
"                                                                "
};
